<svg width="1280" height="1280" viewBox="0 0 1280 1280" fill="none" xmlns="http://www.w3.org/2000/svg">
<g clip-path="url(#clip0_4016_47)">
<path d="M34 17H1314V1297H34V17Z" fill="white"/>
<path d="M211.2 394.24H746.88L755.2 396.8L760.96 400.64L765.44 405.12L769.28 411.52L771.2 420.48L787.84 620.16L788.48 626.56L796.16 642.56L815.36 680.96L823.04 697.6L824.96 706.56V714.88L823.04 723.84L817.92 734.08L812.16 741.12L804.48 746.88L799.36 749.44H798.08L798.72 751.36L800.64 773.76V784.64L798.08 791.68L793.6 797.44L787.84 801.28L782.08 803.2H243.84L236.16 800.64L230.4 796.8L225.28 791.04L222.08 784.64L220.8 779.52L212.48 680.32L204.8 588.16L192 433.92L191.36 427.52V412.16L193.92 405.76L198.4 400L204.16 396.16L211.2 394.24Z" fill="#FAFAFA"/>
<path d="M929.28 236.16H935.68L939.52 238.72L942.08 242.56V249.6L951.04 250.88L956.16 252.8L960.64 256.64L961.28 257.92V264.96L958.08 273.28L954.24 280.96L951.68 285.44L951.04 288V310.4L948.48 317.44L946.56 319.36V342.4L952.96 343.04L956.16 345.6V350.72H963.2L984.32 353.28L991.36 355.2L996.48 359.04L1002.24 364.8L1007.36 373.12L1012.48 384L1015.68 393.6L1017.6 401.28V404.48L1013.12 407.04L1015.04 414.72L1024 446.08L1027.84 462.72L1028.48 467.2V474.88L1025.92 487.68L1020.8 501.76L1013.12 517.76L1005.44 530.56L1003.52 533.12L1002.24 539.52L996.48 547.2L989.44 554.24L983.68 558.72L984.32 573.44L995.84 712.96L999.68 756.48L1004.8 792.96L1013.76 844.16L1024 897.28L1034.88 951.04L1041.92 984.32V985.6H1044.48L1047.04 995.84L1046.4 998.4L1038.08 999.68L1043.84 1018.88V1020.8H1047.04L1054.72 1038.08V1041.28L1052.16 1043.2L1027.84 1048.32L1003.52 1054.72L998.4 1054.08L995.2 1050.24L995.84 1046.4L1005.44 1041.28L1013.12 1035.52L1018.24 1030.4L1020.16 1027.2L1024 1025.28L1022.72 1018.88L1018.24 1004.8L1009.92 1006.08L1006.08 1006.72L1000.96 996.48L1000.32 993.28L1000.96 992.64H1004.16L999.68 977.92L980.48 910.72L965.76 857.6L951.68 804.48L943.36 770.56L937.6 743.04L931.84 706.56L929.92 692.48L927.36 723.2L924.16 773.12L919.04 875.52L913.92 984.32L912.64 1005.44H916.48L915.2 1018.24H904.96L905.6 1020.16V1042.56H908.8L910.08 1046.4L912.64 1060.48L912 1064.96L910.72 1065.6H847.36L844.16 1063.68L842.24 1061.76L841.6 1057.92L843.52 1056L863.36 1051.52L871.68 1048.32L881.92 1043.2L885.12 1042.56V1018.24H872.96L871.68 1009.28V1003.52L876.8 1004.16L876.16 1000.96L870.4 908.8L865.92 826.88L864 782.08L863.36 760.32V727.04L864.64 683.52L867.84 609.92L872.32 539.52L871.68 526.72L869.12 494.72L867.84 471.04V416L868.48 404.48L858.24 401.92L860.8 387.2L843.52 383.36L830.72 378.88L823.04 375.04L818.56 369.92L817.28 365.44L817.92 359.04L821.76 353.28L827.52 346.88L833.92 341.12L844.16 333.44L859.52 323.2L875.52 313.6L887.04 307.2L888.32 302.08L887.04 296.96L885.76 293.12L887.04 291.2V284.16L884.48 283.52L887.68 280.32L888.96 273.92H879.36L875.52 272L872.96 269.44L872.32 267.52V260.48L874.24 254.72V250.88L872.32 247.04L872.96 241.92L876.8 238.72L878.08 238.08H885.12L888.32 240L892.8 245.12L897.92 247.68L904.96 248.32L912.64 246.4L920.32 242.56L928 236.8L929.28 236.16Z" fill="black" fill-opacity="0.8"/>
<path d="M211.2 394.24H746.88L755.2 396.8L760.96 400.64L765.44 405.12L769.28 411.52L771.2 420.48L787.84 620.16L788.48 626.56L796.16 642.56L815.36 680.96L823.04 697.6L824.96 706.56V714.88L823.04 723.84L817.92 734.08L812.16 741.12L804.48 746.88L799.36 749.44H798.08L798.72 751.36L800.64 773.76V784.64L798.08 791.68L793.6 797.44L787.84 801.28L782.08 803.2H243.84L236.16 800.64L230.4 796.8L225.28 791.04L222.08 784.64L220.8 779.52L212.48 680.32L204.8 588.16L192 433.92L191.36 427.52V412.16L193.92 405.76L198.4 400L204.16 396.16L211.2 394.24ZM193.28 419.84L193.92 432L222.72 778.24L225.28 786.56L229.12 792.32L234.88 797.44L241.92 800.64L245.12 801.28H780.16L786.56 799.36L792.32 795.52L796.16 790.4L798.08 785.92L798.72 782.72V775.68L796.8 752.64L795.52 750.08L789.76 751.36H776.96L675.2 737.92L540.8 720L532.48 718.08L523.52 713.6L516.48 707.84L510.72 699.52L507.52 692.48L505.6 684.16V674.56L508.16 664.32L512.64 655.36L520.96 643.84L526.08 636.16L534.4 624L543.36 611.2L550.4 600.96L558.72 588.8L565.76 578.56L574.08 566.4L584.32 551.68L593.92 537.6L600.96 527.36L608.64 516.48L613.76 508.8L620.8 498.56L628.48 487.68L638.08 473.6L644.48 464.64L650.88 458.88L657.28 455.04L664.32 452.48L672 451.2H678.4L686.08 452.48L694.4 455.68L701.44 460.16L704.64 462.72L710.4 470.4L735.36 520.32L742.4 535.04L761.6 573.44L768.64 588.16L784.64 620.16H785.28L784.64 606.72L769.28 422.4L768.64 419.84H193.28Z" fill="#FAFAFA"/>
<path d="M929 236H935.4L939.24 238.56L941.8 242.4V249.44L950.76 250.72L955.88 252.64L960.36 256.48L961 257.76V264.8L957.8 273.12L953.96 280.8L951.4 285.28L950.76 287.84V310.24L948.2 317.28L946.28 319.2V342.24L952.68 342.88L955.88 345.44V350.56H962.92L984.04 353.12L991.08 355.04L996.2 358.88L1001.96 364.64L1007.08 372.96L1012.2 383.84L1015.4 393.44L1017.32 401.12V404.32L1005.16 410.72L985.32 420.96L986.6 426.72L996.84 456.8L1000.68 469.6V480.48L997.48 495.2L991.72 513.76L985.96 529.76L980.2 531.68L873.96 531.04L872.04 530.4L870.76 519.52L868.2 484.32L867.56 470.88V415.84L868.2 404.32L857.96 401.76L860.52 387.04L843.24 383.2L830.44 378.72L822.76 374.88L818.28 369.76L817 365.28L817.64 358.88L821.48 353.12L827.24 346.72L833.64 340.96L843.88 333.28L859.24 323.04L875.24 313.44L886.76 307.04L888.04 301.92L886.76 296.8L885.48 292.96L886.76 291.04V284L884.2 283.36L887.4 280.16L888.68 273.76H879.08L875.24 271.84L872.68 269.28L872.04 267.36V260.32L873.96 254.56V250.72L872.04 246.88L872.68 241.76L876.52 238.56L877.8 237.92H884.84L888.04 239.84L892.52 244.96L897.64 247.52L904.68 248.16L912.36 246.24L920.04 242.4L927.72 236.64L929 236Z" fill="#EBA834"/>
<path d="M211.2 394.24H746.88L755.2 396.8L760.96 400.64L765.44 405.12L769.28 411.52L771.2 420.48L787.84 620.16L788.48 626.56L796.16 642.56L815.36 680.96L823.04 697.6L824.96 706.56V714.88L823.04 723.84L817.92 734.08L812.16 741.12L804.48 746.88L799.36 749.44H798.08L798.72 751.36L800.64 773.76V784.64L798.08 791.68L793.6 797.44L787.84 801.28L782.08 803.2H243.84L236.16 800.64L230.4 796.8L225.28 791.04L222.08 784.64L220.8 779.52L212.48 680.32L204.8 588.16L192 433.92L191.36 427.52V412.16L193.92 405.76L198.4 400L204.16 396.16L211.2 394.24ZM193.28 419.84L193.92 432L222.72 778.24L225.28 786.56L229.12 792.32L234.88 797.44L241.92 800.64L245.12 801.28H780.16L786.56 799.36L792.32 795.52L796.16 790.4L798.08 785.92L798.72 782.72V775.68L796.8 752.64L795.52 750.08L789.76 751.36H776.96L675.2 737.92L540.8 720L532.48 718.08L523.52 713.6L516.48 707.84L510.72 699.52L507.52 692.48L505.6 684.16V674.56L508.16 664.32L512.64 655.36L520.96 643.84L526.08 636.16L534.4 624L543.36 611.2L550.4 600.96L558.72 588.8L565.76 578.56L574.08 566.4L584.32 551.68L593.92 537.6L600.96 527.36L608.64 516.48L613.76 508.8L620.8 498.56L628.48 487.68L638.08 473.6L644.48 464.64L650.88 458.88L657.28 455.04L664.32 452.48L672 451.2H678.4L686.08 452.48L694.4 455.68L701.44 460.16L704.64 462.72L710.4 470.4L735.36 520.32L742.4 535.04L761.6 573.44L768.64 588.16L784.64 620.16H785.28L784.64 606.72L769.28 422.4L768.64 419.84H193.28ZM672 468.48L665.6 470.4L660.48 473.6L655.36 479.36L648.96 488.96L638.72 503.68L629.12 517.76L618.88 532.48L608 548.48L599.04 561.28L589.44 575.36L581.12 587.52L572.16 600.32L562.56 614.4L552.32 629.12L541.44 645.12L531.2 659.84L525.44 668.8L524.16 672.64V682.88L526.72 689.92L530.56 695.04L535.04 699.52L541.44 702.72L551.68 704.64L782.72 735.36H791.68L798.72 732.8L805.12 727.04L808.32 721.28L809.6 712.96L808.32 705.92L801.28 691.2L786.56 661.12L769.92 627.84L762.88 613.12L743.04 573.44L736 558.72L716.8 520.32L709.76 505.6L697.6 481.28L693.12 475.52L686.72 471.04L678.4 468.48H672Z" fill="#EBA834"/>
<path d="M356.48 478.72H364.8L371.2 480.64L376.96 484.48L389.12 496.64L393.6 501.76L401.28 509.44L405.76 514.56L412.8 521.6L417.28 526.72L424.96 534.4L429.44 539.52L436.48 546.56L440.96 551.68L448 558.72L452.48 563.84L460.16 571.52L464.64 576.64L471.68 583.68L476.16 588.8L481.92 594.56L485.76 600.96L487.68 608.64L487.04 616.96L484.48 623.36L480.64 628.48L476.16 632.32L471.04 634.88L413.44 646.4L341.12 660.48L327.04 663.04L319.36 662.4L312.96 659.84L307.2 655.36L303.36 650.24L300.8 643.84L300.16 640.64V635.52L303.36 622.08L320.64 556.16L334.72 503.04L337.92 492.8L341.76 487.04L347.52 481.92L353.92 479.36L356.48 478.72Z" fill="#FAFAFA"/>
<path d="M929.28 236.16H935.68L939.52 238.72L942.08 242.56V249.6L951.04 250.88L956.16 252.8L960.64 256.64L961.28 257.92V264.96L958.08 273.28L954.24 280.96L951.68 285.44L951.04 288V310.4L948.48 317.44L946.56 319.36V342.4L952.96 343.04L956.16 345.6V350.08H925.44L911.36 350.72L901.12 351.36L903.04 347.52L906.24 344.96L912.64 343.04H915.84L917.12 336.64V334.08L909.44 332.8L903.04 329.6L897.28 324.48L891.52 328.32L881.28 336.64L875.52 341.12L868.48 346.88L860.16 353.92L858.24 356.48L866.56 357.12L865.92 363.52L861.44 386.56L854.4 385.92L841.6 382.72L829.44 378.24L823.04 375.04L818.56 369.92L817.28 365.44L817.92 359.04L821.76 353.28L827.52 346.88L833.92 341.12L844.16 333.44L859.52 323.2L875.52 313.6L887.04 307.2L888.32 302.08L887.04 296.96L885.76 293.12L887.04 291.2V284.16L884.48 283.52L887.68 280.32L888.96 273.92H879.36L875.52 272L872.96 269.44L872.32 267.52V260.48L874.24 254.72V250.88L872.32 247.04L872.96 241.92L876.8 238.72L878.08 238.08H885.12L888.32 240L892.8 245.12L897.92 247.68L904.96 248.32L912.64 246.4L920.32 242.56L928 236.8L929.28 236.16Z" fill="#EBA834"/>
<path d="M356.48 478.72H364.8L371.2 480.64L376.96 484.48L389.12 496.64L393.6 501.76L401.28 509.44L405.76 514.56L412.8 521.6L417.28 526.72L424.96 534.4L429.44 539.52L436.48 546.56L440.96 551.68L448 558.72L452.48 563.84L460.16 571.52L464.64 576.64L471.68 583.68L476.16 588.8L481.92 594.56L485.76 600.96L487.68 608.64L487.04 616.96L484.48 623.36L480.64 628.48L476.16 632.32L471.04 634.88L413.44 646.4L341.12 660.48L327.04 663.04L319.36 662.4L312.96 659.84L307.2 655.36L303.36 650.24L300.8 643.84L300.16 640.64V635.52L303.36 622.08L320.64 556.16L334.72 503.04L337.92 492.8L341.76 487.04L347.52 481.92L353.92 479.36L356.48 478.72ZM357.76 488.32L352.64 490.24L348.16 495.36L344.32 508.8L327.68 572.16L316.16 615.68L311.68 632.32V640L314.24 645.12L318.72 649.6L323.2 651.52H330.88L468.48 624.64L473.6 622.08L476.16 618.88L478.08 614.4V609.28L475.52 602.88L466.56 593.28L461.44 588.16L456.96 583.04L449.28 575.36L444.8 570.24L437.76 563.2L433.28 558.08L426.24 551.04L421.76 545.92L414.08 538.24L409.6 533.12L405.12 528.64L400.64 523.52L390.4 513.28L385.92 508.16L378.88 501.12L374.4 496L369.28 490.88L362.88 488.32H357.76Z" fill="#EBA834"/>
<path d="M661.76 535.04H668.8L685.44 537.6L691.84 540.8L696.32 545.92L698.88 551.68V565.76L698.24 577.92L687.36 638.08L684.8 644.48L679.04 649.6L675.2 650.88H666.88L661.12 648.32L656 643.84L653.44 640L652.16 636.16L647.68 574.72V565.76L648.96 546.56L651.52 541.44L656.64 536.96L661.76 535.04Z" fill="#EBA834"/>
<path d="M929.28 236.16H935.68L939.52 238.72L942.08 242.56V249.6L951.04 250.88L956.16 252.8L960.64 256.64L961.28 257.92V264.96L958.08 273.28L954.24 280.96L951.68 285.44L951.04 288V310.4L948.48 317.44L945.28 320L942.08 321.28H935.68L926.72 319.36L926.08 318.08L933.76 314.24L935.04 312.96L936.32 304.64V296.96L935.04 295.04L933.12 294.4H927.36L919.04 296.32L906.88 296.96L905.6 286.72L902.4 283.52L899.2 284.16L897.28 288H896L894.72 284.16V274.56L895.36 272.64L888.96 273.92H879.36L875.52 272L872.96 269.44L872.32 267.52V260.48L874.24 254.72V250.88L872.32 247.04L872.96 241.92L876.8 238.72L878.08 238.08H885.12L888.32 240L892.8 245.12L897.92 247.68L904.96 248.32L912.64 246.4L920.32 242.56L928 236.8L929.28 236.16Z" fill="#1B2E36"/>
<path d="M1011.84 407.04L1013.12 408.32L1022.08 439.04L1027.2 459.52L1028.48 467.2V474.88L1025.92 487.68L1020.8 501.76L1013.12 517.76L1005.44 530.56L1003.52 533.12L1002.24 539.52L996.48 547.2L989.44 554.24L983.68 558.72L982.4 558.08L980.48 531.84L985.6 529.92L992 512L997.12 495.36L1000.32 480.64V469.76L994.56 451.2L984.96 423.04L985.6 420.48L999.68 413.44L1011.84 407.04Z" fill="#903B38"/>
<path d="M871.68 1003.52L906.24 1004.8L916.48 1005.44L915.2 1018.24H904.96L905.6 1020.16V1042.56H908.8L910.08 1046.4L912.64 1060.48L912 1064.96L910.72 1065.6H847.36L844.16 1063.68L842.24 1061.76L841.6 1057.92L843.52 1056L863.36 1051.52L871.68 1048.32L881.92 1043.2L885.12 1042.56V1018.24H872.96L871.68 1009.28V1003.52Z" fill="#EBA834"/>
<path d="M1041.28 985.6H1044.48L1047.04 995.84L1046.4 998.4L1038.08 999.68L1043.84 1018.88V1020.8H1047.04L1054.72 1038.08V1041.28L1052.16 1043.2L1027.84 1048.32L1003.52 1054.72L998.4 1054.08L995.2 1050.24L995.84 1046.4L1005.44 1041.28L1013.12 1035.52L1018.24 1030.4L1020.16 1027.2L1024 1025.28L1022.72 1018.88L1018.24 1004.8L1009.92 1006.08L1006.08 1006.72L1000.96 996.48L1000.32 993.28L1004.8 992L1041.28 985.6Z" fill="#EBA834"/>
<path d="M371.2 528H378.24L382.72 530.56L385.28 533.76L388.48 544L390.4 552.96L394.88 583.04V591.36L392.32 595.2L389.12 597.12H382.08L378.24 595.2L375.04 591.36L367.36 572.8L359.68 553.6L356.48 541.44V536.96L359.04 531.84L362.24 529.92L371.2 528Z" fill="#EBA834"/>
<path d="M983.04 421.76H984.96L991.36 439.68L999.68 465.28L1000.96 469.76V480.64L997.76 495.36L992 513.92L986.24 529.92L980.48 531.84V455.04L981.76 432L983.04 421.76Z" fill="white"/>
<path d="M661.76 666.88L670.72 667.52L676.48 669.44L682.24 674.56L684.8 680.32V689.28L681.6 694.4L677.76 697.6L674.56 698.88H666.24L660.48 697.6L655.36 694.4L651.52 689.92L649.6 684.8V677.76L652.8 671.36L657.28 668.16L661.76 666.88Z" fill="#EBA834"/>
<path d="M896.64 323.84L901.12 327.68L906.24 330.88L912 332.8L917.12 333.44L917.76 336.64L915.84 343.04L906.24 345.6L903.04 348.16L901.12 351.36L897.92 352L867.2 353.92V357.12L858.24 356.48L859.52 353.92L866.56 347.52L875.52 340.48L883.2 334.08L893.44 326.4L896.64 323.84Z" fill="#FAFAFA"/>
<path d="M1041.28 985.6H1044.48L1047.04 995.84L1046.4 998.4L1022.72 1003.52H1018.88L1018.24 1004.8L1009.92 1006.08L1006.08 1006.72L1000.96 996.48L1000.32 993.28L1004.8 992L1041.28 985.6Z" fill="#1B2F37"/>
<path d="M871.68 1003.52L906.24 1004.8L916.48 1005.44L915.2 1018.24H872.96L871.68 1009.28V1003.52Z" fill="#1A2E36"/>
<path d="M885.12 1018.24H904.96L905.6 1020.16V1042.56H885.12V1018.24Z" fill="#913C39"/>
<path d="M1037.44 999.68L1038.72 1001.6L1043.84 1018.88L1043.2 1021.44L1027.2 1025.28H1024.64L1018.88 1006.72V1003.52L1037.44 999.68Z" fill="#913C39"/>
<path d="M925.44 341.76H942.72L952.96 343.04L956.16 345.6V350.08H925.44L911.36 350.72L901.12 351.36L903.04 347.52L906.24 344.96L912.64 343.04L925.44 341.76Z" fill="#1B2E36"/>
<path d="M389.76 606.72H396.16L400.64 609.28L403.2 613.76V619.52L401.28 622.72L398.08 625.28L394.88 625.92H389.76L385.92 624L382.72 620.16L382.08 618.24V613.12L384 609.92L387.2 607.36L389.76 606.72Z" fill="#EBA834"/>
<path d="M191.36 496.64H193.28L197.76 548.48L199.04 567.04L196.48 566.4L190.72 497.28L191.36 496.64Z" fill="#EBA834"/>
<path d="M869.12 404.48L875.52 405.12L896 405.76L894.72 407.04L882.56 410.24L874.24 411.52H868.48V405.76L869.12 404.48Z" fill="#EBA834"/>
<path d="M241.92 401.92L245.76 402.56L248.32 405.12L248.96 408.96L247.04 412.16L246.4 412.8H241.28L238.08 409.6V405.12L240 402.56L241.92 401.92Z" fill="#FAFAFA"/>
<path d="M263.68 401.92L268.16 403.2L270.08 405.76V410.24L267.52 412.8H262.4L259.84 410.24L259.2 405.76L261.76 402.56L263.68 401.92Z" fill="#FAFAFA"/>
<path d="M220.8 401.92L225.28 403.2L227.2 406.4L226.56 410.88L224.64 412.8H219.52L216.32 408.96L216.96 404.48L218.88 402.56L220.8 401.92Z" fill="#FAFAFA"/>
<path d="M1013.76 1020.16H1016.96L1020.8 1025.28L1021.44 1027.2H1020.16L1018.88 1030.4L1016.32 1031.04H1011.2L1009.92 1029.76V1026.56L1014.4 1025.28L1013.12 1023.36L1013.76 1020.16Z" fill="#EBA834"/>
<path d="M876.16 1035.52L879.36 1036.16L881.92 1041.28V1043.84L875.52 1047.04L871.04 1045.12L870.4 1041.92L871.68 1040.64L875.52 1041.28L876.8 1041.92L874.88 1038.72L875.52 1036.16L876.16 1035.52Z" fill="#EBA834"/>
<path d="M198.4 584.96H200.32L200.96 586.88L202.24 601.6V607.36H200.32L199.68 606.08L198.4 591.36V584.96Z" fill="#EBA834"/>
<path d="M984.32 409.6L986.24 412.16L989.44 419.2L984.96 421.76H983.04L983.68 412.8L984.32 409.6Z" fill="#668B4B"/>
<path d="M1011.2 1027.2H1015.68L1018.88 1028.48L1016.96 1029.76L1012.48 1030.4L1010.56 1028.48L1011.2 1027.2Z" fill="#FAFAFA"/>
<path d="M871.68 1041.92L876.16 1042.56L878.72 1043.84V1045.12L875.52 1045.76L872.32 1044.48L871.68 1041.92Z" fill="#FAFAFA"/>
<path d="M876.16 1036.8L878.72 1037.44L880.64 1041.28L880 1043.2L876.16 1038.72V1036.8Z" fill="#FAFAFA"/>
<path d="M1013.76 1021.44L1016.96 1022.08L1019.52 1025.28L1018.88 1027.2L1014.4 1023.36L1013.76 1021.44Z" fill="#FAFAFA"/>
<path d="M1009.92 1026.56H1011.2V1029.76L1018.88 1029.12L1018.24 1031.04H1011.2L1009.92 1029.76V1026.56Z" fill="#668B4B"/>
</g>
<defs>
<clipPath id="clip0_4016_47">
<rect width="1280" height="1280" fill="white"/>
</clipPath>
</defs>
</svg>
